<svg width="50%" height="50%" viewBox="0 0 583 156" fill="none" xmlns="http://www.w3.org/2000/svg">
<path d="M34.56 111L29.696 97.816H12.032L7.168 111H0L17.344 65.112H24.512L41.792 111H34.56ZM23.168 78.936C23.04 78.4667 22.8053 77.7627 22.464 76.824C22.1653 75.8853 21.8667 74.904 21.568 73.88C21.2693 72.856 21.0347 72.024 20.864 71.384C20.5227 72.7067 20.1387 74.1147 19.712 75.608C19.2853 77.1013 18.944 78.2107 18.688 78.936L14.08 91.8H27.776L23.168 78.936ZM64.903 75.864C69.0417 75.864 72.3697 77.3573 74.887 80.344C77.447 83.3307 78.727 87.7893 78.727 93.72C78.727 99.5653 77.447 104.024 74.887 107.096C72.327 110.125 68.9777 111.64 64.839 111.64C62.1937 111.64 60.039 111.171 58.375 110.232C56.7537 109.251 55.4523 108.099 54.471 106.776H54.023C54.151 107.544 54.2577 108.461 54.343 109.528C54.4283 110.552 54.471 111.469 54.471 112.28V126.36H47.687V76.504H53.191L54.151 81.112H54.471C55.4523 79.6613 56.7537 78.424 58.375 77.4C60.039 76.376 62.215 75.864 64.903 75.864ZM63.303 81.432C60.103 81.432 57.8417 82.3707 56.519 84.248C55.1963 86.0827 54.5137 88.8773 54.471 92.632V93.656C54.471 97.624 55.111 100.696 56.391 102.872C57.671 105.005 60.0177 106.072 63.431 106.072C66.247 106.072 68.3377 104.92 69.703 102.616C71.0683 100.312 71.751 97.304 71.751 93.592C71.751 89.8373 71.0683 86.872 69.703 84.696C68.3377 82.52 66.2043 81.432 63.303 81.432ZM117.571 76.504V111H112.131L111.171 106.456H110.851C109.741 108.248 108.205 109.571 106.243 110.424C104.28 111.235 102.211 111.64 100.035 111.64C95.9812 111.64 92.8878 110.637 90.7545 108.632C88.6212 106.627 87.5545 103.448 87.5545 99.096V76.504H94.4025V98.072C94.4025 103.405 96.7278 106.072 101.378 106.072C104.92 106.072 107.373 105.027 108.739 102.936C110.104 100.845 110.787 97.8587 110.787 93.976V76.504H117.571ZM145.711 75.864C146.308 75.864 146.948 75.9067 147.631 75.992C148.356 76.0347 148.975 76.0987 149.487 76.184L148.783 82.52C147.674 82.2213 146.522 82.072 145.327 82.072C143.62 82.072 141.999 82.4987 140.463 83.352C138.97 84.2053 137.754 85.4427 136.815 87.064C135.919 88.6427 135.471 90.5627 135.471 92.824V111H128.687V76.504H134.063L134.959 82.648H135.215C136.324 80.8133 137.754 79.2347 139.503 77.912C141.252 76.5467 143.322 75.864 145.711 75.864ZM168.501 75.864C172.81 75.864 176.031 76.824 178.165 78.744C180.341 80.6213 181.429 83.5867 181.429 87.64V111H176.629L175.285 106.2H175.029C173.535 108.077 171.957 109.464 170.293 110.36C168.671 111.213 166.41 111.64 163.509 111.64C160.394 111.64 157.813 110.808 155.765 109.144C153.717 107.437 152.693 104.792 152.693 101.208C152.693 97.7093 154.015 95.0427 156.661 93.208C159.306 91.3733 163.381 90.3707 168.885 90.2L174.773 90.008V88.088C174.773 85.5707 174.197 83.8 173.045 82.776C171.893 81.7093 170.271 81.176 168.181 81.176C166.431 81.176 164.746 81.432 163.125 81.944C161.503 82.456 159.946 83.0747 158.453 83.8L156.277 78.872C157.898 78.0187 159.754 77.3147 161.845 76.76C163.978 76.1627 166.197 75.864 168.501 75.864ZM170.101 94.552C166.175 94.7227 163.445 95.384 161.909 96.536C160.415 97.6453 159.669 99.224 159.669 101.272C159.669 103.064 160.202 104.365 161.269 105.176C162.335 105.987 163.722 106.392 165.429 106.392C168.074 106.392 170.271 105.645 172.021 104.152C173.813 102.659 174.709 100.419 174.709 97.432V94.424L170.101 94.552ZM223.068 65.304C228.913 65.304 233.222 66.392 235.996 68.568C238.812 70.744 240.22 74.0507 240.22 78.488C240.22 80.8347 239.772 82.8187 238.876 84.44C238.022 86.0187 236.913 87.32 235.548 88.344C234.182 89.3253 232.753 90.1147 231.26 90.712L244.06 111H236.124L225.116 92.504H217.18V111H210.268V65.304H223.068ZM222.62 71.192H217.18V86.744H222.94C226.481 86.744 229.062 86.0827 230.684 84.76C232.305 83.3947 233.116 81.3893 233.116 78.744C233.116 76.0133 232.262 74.072 230.556 72.92C228.849 71.768 226.204 71.192 222.62 71.192ZM263.876 75.864C268.185 75.864 271.406 76.824 273.54 78.744C275.716 80.6213 276.804 83.5867 276.804 87.64V111H272.004L270.66 106.2H270.404C268.91 108.077 267.332 109.464 265.668 110.36C264.046 111.213 261.785 111.64 258.884 111.64C255.769 111.64 253.188 110.808 251.14 109.144C249.092 107.437 248.068 104.792 248.068 101.208C248.068 97.7093 249.39 95.0427 252.036 93.208C254.681 91.3733 258.756 90.3707 264.26 90.2L270.148 90.008V88.088C270.148 85.5707 269.572 83.8 268.42 82.776C267.268 81.7093 265.646 81.176 263.556 81.176C261.806 81.176 260.121 81.432 258.5 81.944C256.878 82.456 255.321 83.0747 253.828 83.8L251.652 78.872C253.273 78.0187 255.129 77.3147 257.22 76.76C259.353 76.1627 261.572 75.864 263.876 75.864ZM265.476 94.552C261.55 94.7227 258.82 95.384 257.284 96.536C255.79 97.6453 255.044 99.224 255.044 101.272C255.044 103.064 255.577 104.365 256.644 105.176C257.71 105.987 259.097 106.392 260.804 106.392C263.449 106.392 265.646 105.645 267.396 104.152C269.188 102.659 270.084 100.419 270.084 97.432V94.424L265.476 94.552ZM273.54 62.616C272.9 63.384 272.004 64.3867 270.852 65.624C269.7 66.8613 268.462 68.0773 267.14 69.272C265.817 70.4667 264.644 71.448 263.62 72.216H259.14V71.448C259.78 70.6373 260.505 69.6773 261.316 68.568C262.126 67.4587 262.916 66.328 263.684 65.176C264.452 63.9813 265.092 62.9147 265.604 61.976H273.54V62.616ZM304.966 75.864C309.104 75.864 312.432 77.3573 314.95 80.344C317.51 83.3307 318.79 87.7893 318.79 93.72C318.79 99.5653 317.51 104.024 314.95 107.096C312.39 110.125 309.04 111.64 304.902 111.64C302.256 111.64 300.102 111.171 298.438 110.232C296.816 109.251 295.515 108.099 294.534 106.776H294.086C294.214 107.544 294.32 108.461 294.406 109.528C294.491 110.552 294.534 111.469 294.534 112.28V126.36H287.75V76.504H293.254L294.214 81.112H294.534C295.515 79.6613 296.816 78.424 298.438 77.4C300.102 76.376 302.278 75.864 304.966 75.864ZM303.366 81.432C300.166 81.432 297.904 82.3707 296.582 84.248C295.259 86.0827 294.576 88.8773 294.534 92.632V93.656C294.534 97.624 295.174 100.696 296.454 102.872C297.734 105.005 300.08 106.072 303.494 106.072C306.31 106.072 308.4 104.92 309.766 102.616C311.131 100.312 311.814 97.304 311.814 93.592C311.814 89.8373 311.131 86.872 309.766 84.696C308.4 82.52 306.267 81.432 303.366 81.432ZM331.393 63.384C332.417 63.384 333.313 63.6827 334.081 64.28C334.849 64.8773 335.233 65.88 335.233 67.288C335.233 68.6533 334.849 69.656 334.081 70.296C333.313 70.8933 332.417 71.192 331.393 71.192C330.284 71.192 329.345 70.8933 328.577 70.296C327.852 69.656 327.489 68.6533 327.489 67.288C327.489 65.88 327.852 64.8773 328.577 64.28C329.345 63.6827 330.284 63.384 331.393 63.384ZM334.721 76.504V111H327.937V76.504H334.721ZM357.715 111.64C353.576 111.64 350.227 110.147 347.667 107.16C345.149 104.173 343.891 99.736 343.891 93.848C343.891 87.9173 345.171 83.4373 347.731 80.408C350.291 77.3787 353.661 75.864 357.843 75.864C360.445 75.864 362.579 76.3547 364.243 77.336C365.907 78.3173 367.251 79.512 368.275 80.92H368.659C368.573 80.3653 368.467 79.512 368.339 78.36C368.211 77.208 368.147 76.184 368.147 75.288V62.36H374.931V111H369.619L368.467 106.392H368.147C367.165 107.885 365.843 109.144 364.179 110.168C362.515 111.149 360.36 111.64 357.715 111.64ZM359.315 106.072C362.643 106.072 364.989 105.155 366.355 103.32C367.72 101.443 368.403 98.648 368.403 94.936V93.912C368.403 89.9013 367.741 86.8293 366.419 84.696C365.139 82.52 362.749 81.432 359.251 81.432C356.477 81.432 354.387 82.5627 352.979 84.824C351.571 87.0427 350.867 90.0933 350.867 93.976C350.867 97.8587 351.571 100.845 352.979 102.936C354.387 105.027 356.499 106.072 359.315 106.072ZM416.462 93.72C416.462 99.4373 414.99 103.853 412.046 106.968C409.102 110.083 405.134 111.64 400.142 111.64C397.027 111.64 394.254 110.936 391.822 109.528C389.433 108.12 387.534 106.093 386.126 103.448C384.761 100.76 384.078 97.5173 384.078 93.72C384.078 88.0027 385.529 83.608 388.43 80.536C391.331 77.4213 395.299 75.864 400.334 75.864C403.491 75.864 406.265 76.568 408.654 77.976C411.086 79.3413 412.985 81.3467 414.35 83.992C415.758 86.6373 416.462 89.88 416.462 93.72ZM391.054 93.72C391.054 97.6027 391.779 100.632 393.23 102.808C394.723 104.984 397.07 106.072 400.27 106.072C403.47 106.072 405.795 104.984 407.246 102.808C408.739 100.632 409.486 97.6027 409.486 93.72C409.486 89.7947 408.739 86.7867 407.246 84.696C405.753 82.5627 403.406 81.496 400.206 81.496C397.006 81.496 394.681 82.5627 393.23 84.696C391.779 86.7867 391.054 89.7947 391.054 93.72Z" fill="#002776"/>
<path d="M517.324 94.978L541.668 61.3236C542.414 60.2914 542.302 58.8666 541.397 57.9618C540.493 57.0622 539.068 56.9478 538.036 57.6914L504.376 82.043C502.182 83.6394 500.801 86.1068 500.59 88.8134C500.38 91.52 501.36 94.1694 503.276 96.0856C505.026 97.8354 507.35 98.8 509.82 98.8C512.779 98.8 515.582 97.3726 517.324 94.978Z" fill="#002776"/>
<path d="M568.788 50.8664C568.762 50.8118 568.762 50.7546 568.734 50.7C568.702 50.648 568.653 50.6194 568.619 50.57C565.991 46.0616 562.881 41.8678 559.35 38.0666L564.932 32.4844L568.609 36.1608L579.638 25.1316L568.609 14.0998L557.577 25.1316L561.256 28.808L555.674 34.3902C551.873 30.8594 547.681 27.7472 543.17 25.1186C543.121 25.0848 543.092 25.0354 543.04 25.0042C542.986 24.973 542.929 24.9756 542.874 24.947C534.832 20.3138 525.797 17.2276 516.167 16.0966V13H520.067C523.652 13 526.567 10.0854 526.567 6.5C526.567 2.9146 523.647 0 520.062 0H496.662C493.076 0 490.162 2.9146 490.162 6.5C490.162 10.0854 493.076 13 496.662 13H500.562V16.0056C497.754 16.3046 494.951 16.7622 492.179 17.3966C490.78 17.7164 489.904 19.1126 490.227 20.5114C490.546 21.9102 491.943 22.7838 493.341 22.464C495.801 21.8998 498.287 21.4812 500.777 21.203L503.354 21.008C504.225 20.943 505.005 20.8962 505.759 20.8598V26C505.759 27.4378 506.921 28.6 508.359 28.6C509.797 28.6 510.959 27.4378 510.959 26V20.878C520.738 21.3278 529.952 23.9538 538.145 28.275L535.581 32.7158C534.863 33.9612 535.29 35.5498 536.533 36.2674C536.941 36.504 537.388 36.6158 537.83 36.6158C538.73 36.6158 539.603 36.1478 540.084 35.3158L542.64 30.8854C550.775 36.0464 557.686 42.9572 562.847 51.0926L558.419 53.6484C557.182 54.366 556.755 55.9546 557.476 57.2C557.959 58.0346 558.83 58.5 559.73 58.5C560.172 58.5 560.619 58.3882 561.027 58.1516L565.465 55.588C569.846 63.8976 572.48 73.2628 572.873 83.1974H567.738C566.3 83.1974 565.138 84.3596 565.138 85.7974C565.138 87.2352 566.3 88.3974 567.738 88.3974H572.873C572.48 98.332 569.846 107.697 565.465 116.007L561.027 113.443C559.784 112.723 558.193 113.147 557.476 114.395C556.758 115.64 557.184 117.229 558.427 117.946L562.855 120.502C557.694 128.638 550.783 135.548 542.648 140.709L540.092 136.282C539.372 135.034 537.778 134.607 536.54 135.33C535.295 136.048 534.869 137.639 535.589 138.882L538.152 143.32C529.96 147.641 520.745 150.267 510.967 150.717V145.6C510.967 144.162 509.805 143 508.367 143C506.929 143 505.767 144.162 505.767 145.6V150.738C501.615 150.595 497.449 150.075 493.349 149.133C491.95 148.808 490.554 149.687 490.234 151.086C489.912 152.485 490.788 153.881 492.187 154.201C497.377 155.397 502.678 156 507.938 156C508.065 156 508.187 155.992 508.315 155.99C508.333 155.99 508.346 156 508.362 156C508.382 156 508.401 155.987 508.421 155.987C520.92 155.901 532.646 152.526 542.791 146.697C542.871 146.661 542.957 146.643 543.035 146.596C543.087 146.565 543.116 146.515 543.165 146.481C553.667 140.361 562.442 131.596 568.575 121.103C568.624 121.033 568.687 120.978 568.731 120.9C568.762 120.845 568.76 120.788 568.786 120.734C574.724 110.438 578.138 98.514 578.138 85.8C578.138 73.086 574.724 61.1624 568.788 50.8664Z" fill="#009B3A"/>
<path d="M484.962 33.8H471.962C469.091 33.8 466.762 36.1296 466.762 39C466.762 41.8704 469.091 44.2 471.962 44.2H484.962C487.832 44.2 490.162 41.8704 490.162 39C490.162 36.1296 487.832 33.8 484.962 33.8Z" fill="#FEDF00"/>
<path d="M484.962 52H458.962C456.091 52 453.762 54.3296 453.762 57.2C453.762 60.0704 456.091 62.4 458.962 62.4H484.962C487.832 62.4 490.162 60.0704 490.162 57.2C490.162 54.3296 487.832 52 484.962 52Z" fill="#FEDF00"/>
<path d="M484.962 70.2H445.962C443.091 70.2 440.762 72.5296 440.762 75.4C440.762 78.2704 443.091 80.6 445.962 80.6H484.962C487.832 80.6 490.162 78.2704 490.162 75.4C490.162 72.5296 487.832 70.2 484.962 70.2Z" fill="#FEDF00"/>
<path d="M484.962 88.4H435.562C432.691 88.4 430.362 90.7296 430.362 93.6C430.362 96.4704 432.691 98.8 435.562 98.8H484.962C487.832 98.8 490.162 96.4704 490.162 93.6C490.162 90.7296 487.832 88.4 484.962 88.4Z" fill="#FEDF00"/>
<path d="M484.962 106.6H451.162C448.291 106.6 445.962 108.93 445.962 111.8C445.962 114.67 448.291 117 451.162 117H484.962C487.832 117 490.162 114.67 490.162 111.8C490.162 108.93 487.832 106.6 484.962 106.6Z" fill="#FEDF00"/>
<path d="M484.962 124.8H466.762C463.891 124.8 461.562 127.13 461.562 130C461.562 132.87 463.891 135.2 466.762 135.2H484.962C487.832 135.2 490.162 132.87 490.162 130C490.162 127.13 487.832 124.8 484.962 124.8Z" fill="#FEDF00"/>
</svg>
